<?xml version="1.0" encoding="UTF-8"?>
<svg width="72" height="72" viewBox="0 0 72 72" fill="none" xmlns="http://www.w3.org/2000/svg">
  <defs>
    <linearGradient id="g" x1="10" y1="10" x2="62" y2="62" gradientUnits="userSpaceOnUse">
      <stop stop-color="#FF2A2A"/>
      <stop offset="1" stop-color="#FF6B6B"/>
    </linearGradient>
    <filter id="glow" x="-30%" y="-30%" width="160%" height="160%" color-interpolation-filters="sRGB">
      <feGaussianBlur stdDeviation="3" result="b"/>
      <feColorMatrix in="b" type="matrix"
        values="1 0 0 0 0
                0 0.2 0 0 0
                0 0 0.2 0 0
                0 0 0 1 0" result="c"/>
      <feMerge>
        <feMergeNode in="c"/>
        <feMergeNode in="SourceGraphic"/>
      </feMerge>
    </filter>
  </defs>

  <circle cx="36" cy="36" r="28" fill="rgba(10,10,12,0.85)" stroke="url(#g)" stroke-width="2.2" filter="url(#glow)"/>
  <path d="M24 30.5C24 26.9 26.9 24 30.5 24H41.5C46.7 24 51 28.3 51 33.5V34.5C51 39.7 46.7 44 41.5 44H35L28.7 48.7C27.8 49.4 26.5 48.7 26.6 47.6L27.2 44H30.5C26.9 44 24 41.1 24 37.5V30.5Z"
        fill="rgba(255,42,42,0.14)" stroke="url(#g)" stroke-width="2" filter="url(#glow)"/>
  <circle cx="33" cy="34" r="2.3" fill="url(#g)"/>
  <circle cx="40" cy="34" r="2.3" fill="url(#g)"/>
</svg>
