<?xml version="1.0" encoding="UTF-8"?>
<svg width="64" height="64" viewBox="0 0 64 64" fill="none" xmlns="http://www.w3.org/2000/svg">
  <defs>
    <linearGradient id="g" x1="8" y1="8" x2="56" y2="56" gradientUnits="userSpaceOnUse">
      <stop stop-color="#FF2A2A"/>
      <stop offset="1" stop-color="#FF6B6B"/>
    </linearGradient>
    <filter id="glow" x="-30%" y="-30%" width="160%" height="160%" color-interpolation-filters="sRGB">
      <feGaussianBlur stdDeviation="2.5" result="b"/>
      <feMerge>
        <feMergeNode in="b"/>
        <feMergeNode in="SourceGraphic"/>
      </feMerge>
    </filter>
  </defs>

  <rect x="6" y="6" width="52" height="52" rx="14" fill="rgba(10,10,12,0.92)" stroke="url(#g)" stroke-width="2" filter="url(#glow)"/>
  <path d="M18 22.5C18 20 20 18 22.5 18H38.5C43.2 18 47 21.8 47 26.5V27.5C47 32.2 43.2 36 38.5 36H30.3L22.8 41.6C22 42.2 20.9 41.5 21 40.5L21.9 36H22.5C20 36 18 34 18 31.5V22.5Z"
        fill="rgba(255,42,42,0.14)" stroke="url(#g)" stroke-width="2" filter="url(#glow)"/>
  <circle cx="28" cy="27" r="2.1" fill="url(#g)"/>
  <circle cx="36" cy="27" r="2.1" fill="url(#g)"/>
</svg>

